<svg version="1.1" viewBox="0.0 0.0 960.0 960.0" fill="none" stroke="none" stroke-linecap="square" stroke-miterlimit="10" xmlns:xlink="http://www.w3.org/1999/xlink" xmlns="http://www.w3.org/2000/svg"><clipPath id="p.0"><path d="m0 0l960.0 0l0 960.0l-960.0 0l0 -960.0z" clip-rule="nonzero"/></clipPath><g clip-path="url(#p.0)"><path fill="#000000" fill-opacity="0.0" d="m0 0l960.0 0l0 960.0l-960.0 0z" fill-rule="evenodd"/><path fill="#000000" d="m0 0l960.0 0l0 960.0l-960.0 0z" fill-rule="evenodd"/><path stroke="#000000" stroke-width="1.0" stroke-linejoin="round" stroke-linecap="butt" d="m0 0l960.0 0l0 960.0l-960.0 0z" fill-rule="evenodd"/><defs><radialGradient id="p.1" gradientUnits="userSpaceOnUse" gradientTransform="matrix(-18.95679271811243 0.0 0.0 -18.95679271811243 0.0 0.0)" spreadMethod="pad" cx="-23.289632324118035" cy="-24.670504270984882" fx="-23.289632324118035" fy="-24.670504270984882" r="18.9567928314209"><stop offset="0.0" stop-color="#f2f2f2"/><stop offset="1.0" stop-color="#a6a6a6"/></radialGradient></defs><path fill="url(#p.1)" d="m601.65546 559.61865c-32.685486 0 -63.191895 -13.280945 -91.51929 -39.842834c-15.253204 -14.302582 -30.506409 -31.669952 -45.759613 -52.102173c10.895142 -18.389008 23.96933 -34.734802 39.222534 -49.037354c30.50644 -28.605103 63.191864 -42.907684 98.056366 -42.907684c26.148315 0 46.84912 7.151306 62.102356 21.453857c21.790283 20.43222 32.685425 43.92926 32.685425 70.49118c0 26.56189 -8.7161255 48.015686 -26.148376 64.36151c-19.611267 18.388977 -42.49109 27.583496 -68.639404 27.583496zm0 64.36151c45.759583 0 84.98218 -15.324219 117.6676 -45.972534c30.506409 -28.605103 45.759644 -65.38312 45.759644 -110.333984c0 -46.99414 -16.342712 -85.81537 -49.0282 -116.463684c-28.327393 -26.56189 -67.54993 -39.842834 -117.6676 -39.842834c-52.296753 0 -94.78781 15.324158 -127.47327 45.972504c-19.611267 18.388977 -37.043518 37.79959 -52.296722 58.231842c-10.895142 -16.345795 -27.237885 -34.734802 -49.028168 -55.167023c-32.685455 -30.648346 -77.35556 -45.972504 -134.01036 -45.972504c-47.93866 0 -87.161194 15.324158 -117.66762 45.972504l45.75963 42.907684c21.790298 -16.345795 46.84915 -24.518677 75.176544 -24.518677c34.864487 0 67.54991 14.302551 98.05635 42.907684c19.611267 18.388977 33.774963 34.73477 42.49109 49.037323c-13.074188 18.389008 -27.237885 34.73477 -42.49109 49.037354c-28.327393 26.56189 -59.92334 39.842834 -94.78781 39.842834c-28.327393 0 -54.475754 -9.194519 -78.44508 -27.583496l-45.75963 42.907654c32.685455 32.69153 74.08702 49.037354 124.20471 49.037354c52.296722 0 95.87732 -16.345825 130.74179 -49.037354c19.611298 -18.388977 35.95401 -36.778015 49.0282 -55.166992c13.074158 16.345764 31.595917 35.756348 55.565247 58.23181c32.685455 30.648315 74.087006 45.972534 124.20474 45.972534z" fill-rule="evenodd"/><path fill="#000000" d="m95.17454 310.09448l76.04725 0l0 0c41.999725 0 76.04724 76.069305 76.04724 169.90552c0 93.83624 -34.047516 169.90552 -76.04724 169.90552l-76.04725 0z" fill-rule="evenodd"/></g></svg>